<svg xmlns="http://www.w3.org/2000/svg" width="56" height="56" viewBox="0 0 56 56">
  <g fill="#FFF" transform="translate(-133 -58)">
    <path fill-opacity=".01" d="M7.76658932,38.6553667 C-3.35795383,62.69121 -1.25416981,77.7605357 14.0767782,83.863344 C37.0737818,93.0175563 91.755882,96.6791634 114.612918,116.537044 C137.469178,136.394535 207.161192,121.043278 219.080179,86.9614771 C230.999166,52.8796762 252.459236,0.348484848 139.298066,0.348484848 C63.8565111,0.348484848 20.01359,13.1171859 7.76697704,38.6553667 L7.76658932,38.6553667 Z"/>
    <path fill-opacity=".05" d="M14.1148953,36.9752318 C3.68908375,59.4815214 5.66072927,73.5918901 20.0287417,79.3063378 C41.5813054,87.8780093 92.8288274,91.3066051 114.250215,109.900802 C135.670875,128.494635 200.985539,114.120276 212.155896,82.207317 C223.326252,50.294358 243.438417,1.10606061 137.384891,1.10606061 C66.6818137,1.10606061 25.5926629,13.0622079 14.1152586,36.9752318 L14.1148953,36.9752318 Z"/>
    <path fill-opacity=".05" d="M20.8287712,35.2950969 C11.120079,56.2718328 12.9561087,69.4232444 26.3358451,74.7493316 C46.4059574,82.7384624 94.1285175,85.9340467 114.076476,103.264561 C134.023758,120.594735 194.845879,107.197274 205.247904,77.4531569 C215.649929,47.7090398 234.378718,1.86363636 135.619878,1.86363636 C69.7799756,1.86363636 31.5170627,13.00723 20.8291095,35.2950969 L20.8287712,35.2950969 Z"/>
    <path fill-opacity=".05" d="M27.5426471,33.614962 C18.5510742,53.0621443 20.2514881,65.2545987 32.6429485,70.1923254 C51.2306093,77.5989154 95.4282076,80.5614884 113.902737,96.6283191 C132.37664,112.694835 188.706218,100.274272 198.339912,72.6989968 C207.973606,45.1237215 225.319018,2.62121212 133.854866,2.62121212 C72.8781375,2.62121212 37.4414625,12.952252 27.5429605,33.614962 L27.5426471,33.614962 Z"/>
    <path fill-opacity=".05" d="M33.890953,31.8187456 C25.5981118,49.6635383 27.1663871,60.8513711 38.594912,65.3822439 C55.7381329,72.1785531 96.501153,74.8970189 113.540034,89.6399909 C130.578337,104.382674 182.530566,92.9855282 191.415629,67.682373 C200.300692,42.3792179 216.298199,3.37878788 131.941691,3.37878788 C75.7034401,3.37878788 43.0205354,12.8585811 33.8912421,31.8187456 L33.890953,31.8187456 Z"/>
    <path fill-opacity=".05" d="M40.6048289,30.2546922 C33.029107,46.6427671 34.4617665,56.9173074 44.9020154,61.078313 C60.5627848,67.3198215 97.8008431,69.8163717 113.366296,83.3558358 C128.93122,96.8950344 176.390905,86.428268 184.507637,63.1906765 C192.624369,39.953085 207.238499,4.13636364 130.176678,4.13636364 C78.8016021,4.13636364 48.9449352,12.8422961 40.605093,30.2546922 L40.6048289,30.2546922 Z"/>
    <path fill-opacity=".1" d="M46.9531349,28.4584758 C40.0761446,43.2441612 41.3766656,52.5140798 50.8539789,56.2682315 C65.0703084,61.8994591 98.8737885,64.1519022 113.003592,76.3675076 C127.132917,88.5828735 170.215253,79.1395242 177.583354,58.1740528 C184.951455,37.2085814 198.21768,4.89393939 128.263503,4.89393939 C81.6269047,4.89393939 54.524008,12.7486252 46.9533746,28.4584758 L46.9531349,28.4584758 Z"/>
    <path fill-opacity=".1" d="M53.6670108,26.8944224 C47.5071398,40.22339 48.672045,48.5800161 57.1610823,51.9643007 C69.8949604,57.0407275 100.173479,59.0712551 112.829854,70.0833525 C125.4858,81.0952341 164.075592,72.582264 170.675362,53.6823563 C177.275132,34.7824486 189.157981,5.65151515 126.49849,5.65151515 C84.7250666,5.65151515 60.4484079,12.7323403 53.6672255,26.8944224 L53.6670108,26.8944224 Z"/>
    <path fill-opacity=".2" d="M60.3808867,25.098206 C54.938135,36.8247841 55.9674244,44.1767885 63.4681857,47.1542191 C74.7196123,51.6203652 101.473169,53.4067856 112.656115,63.0950243 C123.838682,72.7830731 157.935932,65.2935203 163.76737,48.6657326 C169.598809,32.0379449 180.098281,6.40909091 124.733477,6.40909091 C87.8232286,6.40909091 66.3728077,12.6386693 60.3810764,25.098206 L60.3808867,25.098206 Z"/>
  </g>
</svg>
